<?xml version="1.0" encoding="UTF-8" standalone="no"?>
<!-- Created with Inkscape (http://www.inkscape.org/) -->

<svg
   xmlns:dc="http://purl.org/dc/elements/1.1/"
   xmlns:cc="http://creativecommons.org/ns#"
   xmlns:rdf="http://www.w3.org/1999/02/22-rdf-syntax-ns#"
   xmlns:svg="http://www.w3.org/2000/svg"
   xmlns="http://www.w3.org/2000/svg"
   xmlns:sodipodi="http://sodipodi.sourceforge.net/DTD/sodipodi-0.dtd"
   xmlns:inkscape="http://www.inkscape.org/namespaces/inkscape"
   width="639.84021"
   height="640.12714"
   id="svg2"
   version="1.1"
   inkscape:version="0.48.5 r10040"
   sodipodi:docname="Sangguniang Kabataan logo.svg">
  <title
     id="title7202">
Sangguniang Kabataan</title>
  <defs
     id="defs4" />
  <sodipodi:namedview
     id="base"
     pagecolor="#ffffff"
     bordercolor="#666666"
     borderopacity="1.0"
     inkscape:pageopacity="0.0"
     inkscape:pageshadow="2"
     inkscape:zoom="0.75008393"
     inkscape:cx="-97.950361"
     inkscape:cy="520.99114"
     inkscape:document-units="px"
     inkscape:current-layer="layer1"
     showgrid="false"
     fit-margin-top="0"
     fit-margin-left="0"
     fit-margin-right="0"
     fit-margin-bottom="0"
     inkscape:snap-bbox="false"
     inkscape:bbox-paths="true"
     inkscape:bbox-nodes="true"
     inkscape:snap-bbox-edge-midpoints="true"
     inkscape:object-paths="false"
     inkscape:snap-intersection-paths="true"
     inkscape:object-nodes="false"
     inkscape:snap-smooth-nodes="false"
     inkscape:snap-global="true"
     inkscape:snap-object-midpoints="true"
     inkscape:snap-center="true"
     inkscape:window-width="1366"
     inkscape:window-height="705"
     inkscape:window-x="-8"
     inkscape:window-y="-8"
     inkscape:window-maximized="1" />
  <metadata
     id="metadata7">
    <rdf:RDF>
      <cc:Work
         rdf:about="">
        <dc:format>image/svg+xml</dc:format>
        <dc:type
           rdf:resource="http://purl.org/dc/dcmitype/StillImage" />
        <dc:title>
Sangguniang Kabataan</dc:title>
      </cc:Work>
    </rdf:RDF>
  </metadata>
  <g
     inkscape:label="Layer 1"
     inkscape:groupmode="layer"
     id="layer1"
     transform="translate(65.933434,-258.45735)">
    <path
       sodipodi:type="arc"
       style="opacity:0.98999999000000005;color:#000000;fill:#ffffff;fill-opacity:1;stroke:none;stroke-width:1.87354159000000010;stroke-miterlimit:4;stroke-opacity:1;stroke-dasharray:none;marker:none;visibility:visible;display:inline;overflow:visible;enable-background:accumulate"
       id="path7200"
       sodipodi:cx="257.6232"
       sodipodi:cy="403.8454"
       sodipodi:rx="378.62805"
       sodipodi:ry="329.83578"
       d="M -84.035514,545.99922 C -174.15871,381.62241 -94.252188,184.72425 94.440709,106.21486 283.13361,27.705474 509.15871,97.314769 599.28191,261.69158 689.40511,426.06838 609.49859,622.96655 420.80569,701.47593 232.1943,779.95141 6.2637191,710.43885 -83.935761,546.18102"
       transform="matrix(0.84272686,0,0,0.96739088,36.879149,187.83964)"
       sodipodi:start="2.6960101"
       sodipodi:end="8.9785845"
       sodipodi:open="true" />
    <path
       style="opacity:0.98999999;color:#000000;fill:#fcd116;fill-opacity:1;fill-rule:nonzero;stroke:none;stroke-width:0;marker:none;visibility:visible;display:inline;overflow:visible;enable-background:accumulate"
       d="m 254.24629,356.02656 c -20.73314,-0.0689 -41.68605,2.81215 -62.22061,8.85468 1.85635,1.40988 3.98846,3.05028 6.34365,4.86346 0.79792,0.61389 1.37184,1.06205 2.22028,1.71807 3.10308,2.39916 6.5148,5.06602 10.17627,7.95599 0.29132,0.22989 0.52522,0.4018 0.81938,0.63437 1.08439,0.85735 2.078,1.64554 3.19826,2.53745 2.12449,1.69073 4.30091,3.43484 6.52867,5.23351 0.93885,0.75803 1.84887,1.49864 2.80178,2.27314 2.04409,1.66195 4.14735,3.40146 6.23792,5.12778 0.12241,0.10107 0.24751,0.1895 0.37004,0.29076 0.0438,0.0362 0.0884,0.0695 0.13216,0.10572 2.19589,1.81566 4.36493,3.63053 6.58154,5.49783 0.5899,0.49694 1.18085,0.9804 1.77093,1.48018 1.66016,1.4056 3.31603,2.80631 4.96919,4.2291 1.69983,1.46332 3.36888,2.94072 5.04849,4.41412 0.53411,0.46844 1.08117,0.93201 1.61234,1.40089 1.10738,0.9778 2.21217,1.95594 3.30398,2.93394 0.40909,0.36639 0.80935,0.74396 1.21587,1.11014 1.20544,1.08584 2.38902,2.16938 3.5683,3.25112 1.57002,1.44016 3.13929,2.88239 4.65201,4.30839 2.53265,2.38749 5.13323,4.99272 7.77097,7.77097 1.75849,1.85216 3.53386,3.78341 5.3128,5.76214 9.7842,10.88306 19.73196,23.4063 28.07064,34.41429 3.03301,4.00321 5.85204,7.8054 8.3789,11.25997 2.52615,3.45429 4.75589,6.54117 6.60797,9.14543 0.003,0.005 -0.003,0.0215 0,0.0264 3.6945,5.19533 5.8943,8.40533 5.8943,8.40533 0,0 11.04783,-10.90622 24.44947,-24.87238 2.53936,-2.64633 5.17428,-5.40716 7.82384,-8.22031 0.84615,-0.89852 1.688,-1.78768 2.53745,-2.69605 0.004,-0.005 -0.004,-0.0217 0,-0.0264 0.8414,-0.8998 1.67017,-1.81642 2.51103,-2.72248 1.82794,-1.96944 3.64769,-3.92065 5.44497,-5.89431 0.81999,-0.90056 1.65035,-1.79986 2.45816,-2.69605 0.004,-0.005 -0.004,-0.0215 0,-0.0264 1.69406,-1.87951 3.38013,-3.73932 4.99562,-5.57712 0.004,-0.005 -0.004,-0.0213 0,-0.0264 1.39952,-1.59222 2.75363,-3.13889 4.07051,-4.67844 0.20788,-0.24306 0.42885,-0.49864 0.63436,-0.74009 2.25034,-2.64404 4.36122,-5.21595 6.26435,-7.61238 0.63673,-0.80176 1.26083,-1.58602 1.85023,-2.35244 0.6004,-0.7807 1.18075,-1.57495 1.74451,-2.37886 0.14941,-0.21307 0.30245,-0.41974 0.44934,-0.63437 0.4059,-0.59266 0.80235,-1.19308 1.18943,-1.79736 0.27913,-0.43642 0.55,-0.8794 0.81939,-1.3216 0.23955,-0.39275 0.48163,-0.79227 0.71366,-1.18943 0.0816,-0.1399 0.15721,-0.28247 0.23789,-0.42291 0.40495,-0.7037 0.80744,-1.42435 1.18943,-2.14098 0.19867,-0.37369 0.38898,-0.75954 0.5815,-1.13657 0.6988,-1.3685 1.36201,-2.76714 1.98239,-4.17624 0.36866,-0.83734 0.71522,-1.68731 1.05728,-2.53746 0.0251,-0.0623 0.0544,-0.12267 0.0793,-0.18502 0.0146,-0.0365 0.0383,-0.0692 0.0529,-0.10573 0.33173,-0.83323 0.64443,-1.66675 0.95155,-2.51102 0.0162,-0.0448 0.0366,-0.0874 0.0529,-0.13216 -39.3851,-35.98312 -91.68334,-56.01521 -145.50736,-56.19423 z m -92.19434,20.11465 c -2.7518,1.27102 -5.4458,2.62228 -8.11458,3.99121 1.62707,1.84154 3.21223,3.66212 4.75773,5.4714 1.53628,1.79846 3.02174,3.57821 4.44056,5.3128 0.1353,0.16543 0.28885,0.33753 0.42291,0.50221 0.564,0.69296 1.12483,1.3831 1.6652,2.06168 0.0966,0.12133 0.19494,0.24922 0.29076,0.37005 0.56963,0.71843 1.12554,1.44165 1.6652,2.14098 1.25957,1.63257 2.44546,3.22548 3.51544,4.7313 0.79291,1.11589 1.55868,2.20379 2.29957,3.30399 0.004,0.006 -0.004,0.0205 0,0.0264 1.47706,2.19406 2.87293,4.36684 4.14981,6.50224 0.64023,1.07071 1.25863,2.11492 1.85023,3.17183 0.003,0.007 -0.003,0.0199 0,0.0264 1.17872,2.10678 2.25898,4.1822 3.25111,6.23792 0.003,0.007 -0.003,0.0195 0,0.0264 1.48859,3.08608 2.79225,6.13391 3.88549,9.11899 0.36524,0.99719 0.70748,1.9732 1.03084,2.96037 0.64677,1.9747 1.20567,3.92946 1.69164,5.86787 1.21494,4.84604 1.9382,9.59879 2.24671,14.27321 0.1234,1.86977 0.19088,3.72598 0.18502,5.57712 -0.003,0.92556 -0.0193,1.8535 -0.0529,2.77535 -0.1678,4.60926 -0.71044,9.15439 -1.55948,13.71813 -0.67924,3.65099 -1.55615,7.30199 -2.59032,10.96923 -0.51709,1.83361 -1.0729,3.67901 -1.66521,5.52426 -0.29616,0.92262 -0.61184,1.84886 -0.92512,2.77534 -1.03466,3.05994 -2.12237,5.99556 -3.27755,8.80181 -1.73276,4.20937 -3.59147,8.15277 -5.55069,11.86791 -1.30615,2.47676 -2.65715,4.84548 -4.04407,7.1366 -0.69347,1.14556 -1.40388,2.27903 -2.11455,3.38328 -2.13204,3.31276 -4.33034,6.43393 -6.58154,9.43617 -8.2544,11.00824 -17.1214,20.23202 -25.29529,29.94731 -0.004,0.005 0.004,0.0213 0,0.0264 -2.22469,2.64459 -4.40823,5.32575 -6.50224,8.08815 -1.39832,1.84546 -2.77668,3.72447 -4.09694,5.65641 -3.30064,4.82988 -6.32127,9.97969 -8.9604,15.64767 -0.44791,0.94133 -0.89115,1.88268 -1.32159,2.82821 -0.86088,1.89095 -1.67143,3.7732 -2.37887,5.62998 -0.35374,0.92853 -0.68347,1.84159 -0.97798,2.74892 -0.003,0.008 0.003,0.0188 0,0.0264 -0.14433,0.44545 -0.29539,0.88279 -0.42291,1.32159 -0.003,0.008 0.003,0.0184 0,0.0264 -0.25963,0.89339 -0.48128,1.75727 -0.6608,2.61675 -0.0898,0.42984 -0.17075,0.84895 -0.23788,1.26873 -0.002,0.008 0.002,0.0182 0,0.0264 -0.0652,0.41078 -0.11673,0.81575 -0.15859,1.21587 -8.5e-4,0.009 8.4e-4,0.0178 0,0.0264 -0.0845,0.80805 -0.12671,1.59402 -0.10573,2.35243 2.4e-4,0.009 -2.5e-4,0.0179 0,0.0264 0.0116,0.37409 0.0394,0.7497 0.0793,1.11014 0.12124,1.09492 0.38049,2.14196 0.79296,3.09253 0.004,0.0101 0.022,0.0163 0.0264,0.0264 0.42026,0.95901 0.97952,1.83387 1.7445,2.61675 0.25498,0.26106 0.52263,0.50073 0.81939,0.7401 0.005,0.004 0.0211,-0.004 0.0264,0 0.88721,0.71256 1.9613,1.34941 3.25112,1.85023 0.008,0.003 0.0188,-0.003 0.0264,0 0.85922,0.33211 1.80033,0.61771 2.85464,0.84582 0.009,0.002 0.0178,-0.002 0.0264,0 0.0755,0.0162 0.16133,0.0371 0.23788,0.0529 0.99497,0.20407 2.07535,0.36901 3.25112,0.47577 1.27592,0.11586 2.67402,0.16545 4.17624,0.15859 0.96209,0.19207 1.91776,0.34811 2.9075,0.47578 0.0623,0.008 0.1226,0.0186 0.18503,0.0264 0.009,8.4e-4 0.0178,-8.5e-4 0.0264,0 1.5726,0.19547 3.20018,0.31817 4.83703,0.37004 0.54857,0.0173 1.10987,0.0236 1.6652,0.0264 1.10221,0.005 2.22943,-0.006 3.35685,-0.0529 2.27259,-0.0952 4.58766,-0.31168 6.95158,-0.5815 16.54745,-1.88878 35.1516,-7.42692 53.26021,-7.7974 1.29341,-0.0266 2.59804,-0.0294 3.88548,0 1.93125,0.0442 3.84956,0.15545 5.76215,0.34361 1.27499,0.12532 2.54179,0.30488 3.80618,0.50221 0.63222,0.0987 1.24745,0.19925 1.87667,0.31718 0.009,0.002 0.0179,-0.002 0.0264,0 1.24992,0.2348 2.51662,0.50401 3.75332,0.81939 1.24498,0.3174 2.47074,0.67823 3.70046,1.0837 1.84458,0.60823 3.66637,1.31651 5.4714,2.14099 0.60169,0.27486 1.20054,0.57175 1.79736,0.87225 1.19363,0.60093 2.39551,1.24767 3.5683,1.95596 1.17283,0.70834 2.31246,1.47746 3.46258,2.29957 0.006,0.004 0.0205,-0.004 0.0264,0 2.29428,1.64129 4.54729,3.52385 6.74012,5.65642 0.36643,0.4083 0.71367,0.81595 1.05728,1.24229 1.72365,2.13573 3.15481,4.48648 4.33482,7.00445 0.47082,1.00501 0.9054,2.03967 1.29516,3.09253 0.9745,2.63123 1.69154,5.39846 2.19385,8.24674 0.20087,1.13977 0.37138,2.30111 0.5022,3.46257 0.13083,1.16146 0.22684,2.31333 0.29076,3.48901 0.12792,2.35037 0.12086,4.72129 0,7.08374 -4.4e-4,0.009 4.4e-4,0.0178 0,0.0264 -0.03,0.58181 -0.0616,1.16422 -0.10573,1.7445 -6.6e-4,0.009 6.7e-4,0.0177 0,0.0264 -0.0443,0.58028 -0.10051,1.16665 -0.15859,1.7445 -0.17693,1.76018 -0.41625,3.51285 -0.71366,5.23351 -0.19826,1.14681 -0.41292,2.26329 -0.6608,3.38328 -0.002,0.008 0.002,0.018 0,0.0264 -0.49462,2.23114 -1.09804,4.42211 -1.77093,6.50224 -0.33377,1.03178 -0.70303,2.07747 -1.08371,3.11896 -0.38471,1.05251 -0.78492,2.11023 -1.21587,3.17182 -0.38545,0.94953 -0.79471,1.89848 -1.21586,2.85464 -0.051,0.11589 -0.10706,0.22764 -0.15859,0.34362 -0.4719,1.06164 -0.96611,2.1293 -1.48019,3.19825 -0.51711,1.07525 -1.05423,2.14288 -1.61234,3.22469 -0.0365,0.0707 -0.0691,0.14072 -0.10573,0.21145 -0.2255,0.43539 -0.4553,0.88525 -0.68723,1.3216 -0.18335,0.34477 -0.36777,0.6855 -0.55507,1.03084 -0.35323,0.65173 -0.71669,1.30232 -1.0837,1.95596 -0.074,0.13167 -0.13692,0.26473 -0.21146,0.39647 -0.30609,0.54145 -0.60986,1.06974 -0.92511,1.61235 -0.60701,1.04429 -1.23678,2.09734 -1.87667,3.14539 -0.027,0.0442 -0.0523,0.0879 -0.0793,0.13216 -0.45788,0.74848 -0.92692,1.49664 -1.40089,2.24671 -0.0105,0.0166 -0.0159,0.0363 -0.0264,0.0529 -0.90595,1.43342 -1.84003,2.8706 -2.80177,4.3084 -0.31876,0.47618 -0.65338,0.95078 -0.97798,1.42732 -0.42669,0.62686 -0.85864,1.24934 -1.29517,1.87666 -0.43721,0.6279 -0.87482,1.24845 -1.32159,1.87666 -2.26664,3.18927 -4.64786,6.38306 -7.1366,9.56833 -1.08119,1.38378 -2.18636,2.7695 -3.30398,4.14981 -0.17044,0.21036 -0.33098,0.4241 -0.50221,0.63436 -0.98156,1.20603 -1.98016,2.39272 -2.9868,3.59474 -0.32551,0.38852 -0.65,0.77496 -0.97798,1.163 -1.33814,1.5839 -2.69442,3.15721 -4.07051,4.7313 -1.14095,1.30511 -2.29873,2.61514 -3.46257,3.91192 -0.23083,0.2571 -0.45557,0.50978 -0.68723,0.76652 -0.0881,0.0976 -0.17613,0.19316 -0.26432,0.29075 -1.32694,1.46839 -2.66624,2.9325 -4.01764,4.38769 -0.30832,0.33199 -0.61566,0.67317 -0.92512,1.00441 -1.12903,1.20839 -2.26716,2.39708 -3.40971,3.59473 15.04501,3.76022 30.53869,5.94536 46.2029,6.44938 0.009,2.9e-4 0.0176,-2.8e-4 0.0264,0 0.69625,-1.12408 1.38989,-2.26402 2.08812,-3.43614 0.01,-0.0167 0.0165,-0.0362 0.0264,-0.0529 0.68409,-1.14903 1.37796,-2.32035 2.06168,-3.51543 0.51245,-0.89581 1.02192,-1.82727 1.53305,-2.74892 0.59716,-1.07667 1.17693,-2.16566 1.77094,-3.27755 0.594,-1.11189 1.18156,-2.23622 1.77093,-3.38328 0.58937,-1.14706 1.18769,-2.30681 1.77094,-3.489 0.459,-0.93036 0.92007,-1.87612 1.37445,-2.82821 0.12007,-0.25169 0.25034,-0.51331 0.37005,-0.76653 0.55063,-1.16439 1.09643,-2.3454 1.63877,-3.54187 0.0242,-0.0533 0.0552,-0.10522 0.0793,-0.15859 0.15575,-0.34427 0.29435,-0.71035 0.44934,-1.05727 0.94588,-2.11724 1.88827,-4.28655 2.80178,-6.50224 0.0257,-0.0623 0.0536,-0.12259 0.0793,-0.18502 0.14738,-0.35832 0.30291,-0.72283 0.44934,-1.08371 0.39171,-0.96608 0.77855,-1.94949 1.163,-2.93394 0.22851,-0.5848 0.46144,-1.17965 0.68723,-1.77093 0.29441,-0.77164 0.58271,-1.56978 0.87225,-2.35244 0.30653,-0.82811 0.62434,-1.67058 0.92512,-2.51102 0.20251,-0.56634 0.40815,-1.14614 0.60793,-1.71808 0.37748,-1.07996 0.74288,-2.17765 1.11014,-3.27755 0.11616,-0.34821 0.22851,-0.70706 0.34361,-1.05727 0.44108,-1.34115 0.89689,-2.70011 1.3216,-4.07051 0.0376,-0.12119 0.0683,-0.24863 0.10572,-0.37004 0.10794,-0.35022 0.21037,-0.70516 0.31719,-1.05728 0.34732,-1.14597 0.69579,-2.29648 1.03084,-3.46257 0.0374,-0.1301 0.0685,-0.26613 0.10573,-0.39648 0.50894,-1.78247 1.00193,-3.58929 1.48018,-5.41853 0.39846,-1.52403 0.78733,-3.06912 1.163,-4.62558 0.0747,-0.30901 0.16416,-0.61483 0.23789,-0.92511 0.0991,-0.4175 0.19337,-0.84893 0.29075,-1.26873 0.28978,-1.24925 0.57161,-2.51006 0.84582,-3.77976 0.0473,-0.21885 0.0853,-0.44134 0.13216,-0.6608 0.15041,-0.70552 0.3039,-1.42918 0.44934,-2.14098 0.0912,-0.44597 0.17512,-0.89959 0.26432,-1.34802 0.24471,-1.23027 0.48432,-2.45168 0.71366,-3.70046 0.31293,-1.70397 0.61568,-3.44224 0.89868,-5.18065 0.29844,-1.83321 0.58236,-3.67923 0.84582,-5.55069 0.10279,-0.73128 0.19349,-1.48316 0.29075,-2.22028 0.17701,-1.34147 0.34399,-2.68329 0.50221,-4.04407 0.19855,-1.70767 0.3872,-3.44261 0.55507,-5.18065 0.0906,-0.93691 0.1829,-1.88248 0.26432,-2.82821 0.14018,-1.63106 0.25799,-3.25906 0.37004,-4.91632 0.14882,-2.20106 0.27289,-4.44003 0.37005,-6.68726 0.0972,-2.24724 0.16828,-4.49965 0.21145,-6.79299 0.0132,-0.70023 0.0184,-1.41003 0.0264,-2.11455 0.0179,-1.5484 0.0342,-3.10932 0.0264,-4.67844 -2.6e-4,-0.0525 2.9e-4,-0.10608 0,-0.15859 -0.007,-1.16969 -0.0318,-2.36069 -0.0529,-3.54187 -0.0211,-1.18119 -0.0434,-2.3492 -0.0793,-3.54187 -0.05,-1.65924 -0.10574,-3.3406 -0.18503,-5.02206 -0.009,-0.20086 -0.0166,-0.40674 -0.0264,-0.60793 -0.0856,-1.7424 -0.19918,-3.49378 -0.31718,-5.25994 -0.009,-0.14015 -0.0168,-0.28261 -0.0264,-0.42291 -0.0119,-0.17503 -0.0406,-0.35337 -0.0529,-0.52864 -0.13221,-1.88907 -0.25264,-3.7932 -0.42291,-5.70928 -0.005,-0.0535 -0.0217,-0.10511 -0.0264,-0.15859 -0.0179,-0.20065 -0.0345,-0.40698 -0.0529,-0.60793 -0.12546,-1.37194 -0.27747,-2.76409 -0.42291,-4.14981 -0.11958,-1.13937 -0.23673,-2.28746 -0.37004,-3.43614 -0.27318,-2.35375 -0.56648,-4.71737 -0.89869,-7.11017 -0.20673,-1.48911 -0.43061,-2.98921 -0.66079,-4.49342 -0.24865,-1.62487 -0.4974,-3.24433 -0.76653,-4.86346 -0.26876,-1.61748 -0.55733,-3.22583 -0.84582,-4.83703 -0.28848,-1.6112 -0.59111,-3.23254 -0.89868,-4.83703 -0.30756,-1.6045 -0.62553,-3.1868 -0.95155,-4.78417 -0.32601,-1.59737 -0.66058,-3.19435 -1.00441,-4.78417 -0.68765,-3.17964 -1.41235,-6.34213 -2.16741,-9.48903 -0.021,-0.0876 -0.0318,-0.17679 -0.0529,-0.26432 -0.35785,-1.48642 -0.71163,-2.96194 -1.08371,-4.44056 -0.39342,-1.56463 -0.80718,-3.12304 -1.21587,-4.67844 -0.16705,-0.63579 -0.33267,-1.26889 -0.5022,-1.90309 -0.24619,-0.92034 -0.48878,-1.83197 -0.74009,-2.74891 -0.24638,-0.89966 -0.48894,-1.79979 -0.74009,-2.69605 -0.18082,-0.64476 -0.37183,-1.28655 -0.55507,-1.92953 -0.33179,-1.16512 -0.6649,-2.3299 -1.00441,-3.48901 -0.10851,-0.37017 -0.20791,-0.74059 -0.31719,-1.11013 -0.42205,-1.42839 -0.86194,-2.83673 -1.29516,-4.25553 -0.0295,-0.0965 -0.0497,-0.19428 -0.0793,-0.29075 -0.46335,-1.51419 -0.9519,-3.04347 -1.42732,-4.54628 -0.27396,-0.86601 -0.54159,-1.72821 -0.81939,-2.59033 -0.2049,-0.63525 -0.401,-1.26997 -0.60793,-1.90309 -0.13649,-0.41802 -0.28555,-0.82523 -0.42291,-1.2423 -0.35219,-1.06836 -0.69955,-2.13618 -1.05728,-3.19825 -0.2296,-0.68228 -0.45543,-1.35564 -0.68723,-2.03526 -0.64065,-1.87691 -1.29938,-3.74743 -1.95595,-5.60355 -0.55568,-1.5709 -1.12543,-3.12301 -1.69164,-4.67844 -0.26001,-0.71426 -0.50442,-1.43006 -0.76653,-2.14098 -0.35929,-0.97528 -0.72064,-1.96511 -1.0837,-2.93394 -0.007,-0.0184 -0.0195,-0.0344 -0.0264,-0.0529 -0.88245,-2.35408 -1.79342,-4.66336 -2.69605,-6.97802 -0.19139,-0.49045 -0.36285,-0.99153 -0.55507,-1.48018 -0.18925,-0.48141 -0.39148,-0.9477 -0.5815,-1.42732 -0.6491,-1.63738 -1.29845,-3.27365 -1.95596,-4.8899 -0.65752,-1.61624 -1.3175,-3.21618 -1.98239,-4.81059 -1.86881,-4.48138 -3.74494,-8.86462 -5.65642,-13.16307 -0.13119,-0.29518 -0.26514,-0.57799 -0.39648,-0.87225 -1.3258,-2.96932 -2.65503,-5.90063 -3.99121,-8.77538 -0.0368,-0.0792 -0.0689,-0.15877 -0.10573,-0.23789 -0.82955,-1.78291 -1.65351,-3.51512 -2.48459,-5.25994 -0.55285,-1.16108 -1.08594,-2.29246 -1.63878,-3.43614 -0.23032,-0.47647 -0.45697,-0.92747 -0.68723,-1.40089 -1.1443,-2.35272 -2.29632,-4.67604 -3.43614,-6.95158 -1.36918,-2.73344 -2.74185,-5.41829 -4.09694,-8.03529 -1.35508,-2.617 -2.68495,-5.17022 -4.01764,-7.66524 -1.13326,-2.12165 -2.24533,-4.18175 -3.35685,-6.21149 -0.20368,-0.37191 -0.40508,-0.71496 -0.60793,-1.0837 -2.60398,-4.73497 -5.12818,-9.20936 -7.55951,-13.40096 -1.16645,-2.01093 -2.29432,-3.96313 -3.40971,-5.84144 -0.0481,-0.081 -0.11055,-0.15712 -0.15859,-0.23789 -0.28261,-0.47545 -0.54039,-0.90776 -0.81939,-1.37445 -0.87665,-1.46577 -1.7256,-2.87845 -2.56389,-4.25553 -0.0963,-0.15837 -0.19495,-0.29216 -0.29075,-0.44934 -1.00203,-1.64302 -1.96741,-3.22067 -2.90751,-4.73131 -0.0353,-0.0567 -0.0705,-0.1021 -0.10572,-0.15859 -10.84724,-5.49538 -17.27393,-13.67114 -17.27393,-13.67114 0,0 -14.07141,5.30285 -19.86259,7.90963 z m 161.15507,3.85905 c 13.41344,0.0461 26.26389,7.59703 32.4319,20.51113 8.58157,17.96743 0.97173,39.49798 -16.99569,48.07956 -17.95967,8.57787 -39.46429,0.98516 -48.05313,-16.96926 l -0.0264,-0.0264 c -8.58157,-17.96743 -0.97173,-39.49798 16.99569,-48.07956 5.05334,-2.41357 10.39892,-3.53349 15.64766,-3.51544 z m -185.12877,9.09256 c -69.013741,43.11463 -105.107012,120.45379 -95.524751,197.1817 0.07134,-0.17555 0.139413,-0.35325 0.211454,-0.52864 0.430178,-1.04723 0.893151,-2.10437 1.348025,-3.14539 0.270381,-0.61854 0.540539,-1.23386 0.819388,-1.85023 0.136919,-0.30279 0.283981,-0.59641 0.42291,-0.89868 0.2387,-0.5191 0.469119,-1.04192 0.71366,-1.55948 0.388154,-0.82177 0.786916,-1.64026 1.189434,-2.45816 0.277909,-0.56462 0.561247,-1.12885 0.84582,-1.69164 0.271199,-0.53644 0.542263,-1.07756 0.819388,-1.61235 0.694787,-1.34045 1.410371,-2.68747 2.14098,-4.01764 0.07199,-0.13109 0.139127,-0.26549 0.211455,-0.39648 0.72465,-1.31217 1.462844,-2.60963 2.220277,-3.91191 0.24247,-0.41694 0.494392,-0.82637 0.740092,-1.2423 0.768667,-1.30118 1.553432,-2.59407 2.352436,-3.88549 0.05406,-0.0874 0.104388,-0.17697 0.158591,-0.26431 0.957693,-1.54328 1.936099,-3.06962 2.933937,-4.59915 0.787218,-1.20668 1.568504,-2.42292 2.378868,-3.62116 0.166324,-0.24594 0.334947,-0.49451 0.502205,-0.7401 0.298348,-0.43811 0.623857,-0.85816 0.925115,-1.29516 0.846861,-1.22831 1.695238,-2.45447 2.563891,-3.67403 0.972287,-1.36505 1.963129,-2.71628 2.960369,-4.0705 0.10901,-0.14804 0.207889,-0.30144 0.317182,-0.44934 0.0188,-0.0255 0.03405,-0.0539 0.05286,-0.0793 0.156505,-0.21168 0.3187,-0.42294 0.475773,-0.63436 0.978174,-1.31656 1.961502,-2.63188 2.960369,-3.93835 0.525543,-0.68745 1.055122,-1.377 1.585911,-2.06169 0.574692,-0.7412 1.164076,-1.48228 1.744503,-2.22027 0.09706,-0.12342 0.193549,-0.24673 0.29075,-0.37005 0.495955,-0.62913 1.00683,-1.24984 1.506617,-1.87666 1.326532,-1.66379 2.641029,-3.32151 3.991211,-4.96919 0.190326,-0.23226 0.39076,-0.45529 0.581501,-0.68723 1.729346,-2.10293 3.475836,-4.2135 5.233509,-6.29078 0.367635,-0.43447 0.741538,-0.86181 1.110138,-1.29516 1.03508,-1.21697 2.077663,-2.41282 3.11896,-3.62117 2.143468,-2.48732 4.293084,-4.9757 6.449375,-7.42735 0.124327,-0.14136 0.24571,-0.28168 0.370046,-0.42291 0.445248,-0.50578 0.876311,-1.00233 1.321601,-1.50662 3.03311,-3.43506 6.06038,-6.83483 9.06612,-10.2027 1.41603,-1.58664 2.80096,-3.13262 4.20267,-4.70487 2.45937,-2.7585 4.87571,-5.47825 7.26876,-8.19388 0.83512,-0.94769 1.65153,-1.92375 2.43173,-2.88107 0.72377,-0.88807 1.41051,-1.77391 2.08812,-2.66962 0.0535,-0.0709 0.1053,-0.14056 0.15859,-0.21145 0.64964,-0.86381 1.29529,-1.72004 1.9031,-2.59033 0.0734,-0.10512 0.13866,-0.21197 0.21145,-0.31718 0.67437,-0.97424 1.3061,-1.9524 1.92953,-2.93394 0.62343,-0.98153 1.22354,-1.9723 1.79737,-2.96036 0.45196,-0.77823 0.89966,-1.54417 1.32159,-2.32601 0.0431,-0.0799 0.0894,-0.15794 0.13216,-0.23788 0.47049,-0.87921 0.91449,-1.78639 1.34802,-2.66962 0.28202,-0.57456 0.55269,-1.142 0.81939,-1.71807 0.30885,-0.66685 0.61001,-1.34017 0.89868,-2.00883 0.39061,-0.90475 0.75563,-1.8149 1.11014,-2.72248 0.0386,-0.0987 0.0941,-0.19199 0.13216,-0.29075 0.25615,-0.66315 0.50269,-1.31802 0.74009,-1.98239 0.0351,-0.0982 0.0711,-0.19254 0.10573,-0.29075 0.27461,-0.77761 0.51693,-1.5471 0.76652,-2.326 0.0314,-0.0978 0.0748,-0.19293 0.10573,-0.29075 0.0168,-0.0533 0.0361,-0.10532 0.0529,-0.15859 0.23713,-0.75474 0.44647,-1.5176 0.66079,-2.27314 0.0479,-0.16874 0.1118,-0.33345 0.15859,-0.50221 0.11732,-0.42353 0.23329,-0.84505 0.34362,-1.26873 0.0595,-0.22813 0.10112,-0.45906 0.15859,-0.68723 0.13531,-0.53718 0.27214,-1.07508 0.39648,-1.61234 0.16317,-0.70598 0.33114,-1.40865 0.47577,-2.11455 0.0126,-0.0614 0.014,-0.12358 0.0264,-0.18502 0.0984,-0.48538 0.20096,-0.96853 0.29075,-1.45376 0.0407,-0.21978 0.0668,-0.44105 0.10573,-0.66079 0.1029,-0.58074 0.19981,-1.16417 0.29075,-1.7445 0.0332,-0.21181 0.0741,-0.42264 0.10573,-0.63437 0.0683,-0.45722 0.12397,-0.9176 0.18502,-1.37446 0.0748,-0.55919 0.14733,-1.10668 0.21145,-1.6652 0.0478,-0.41588 0.0901,-0.82685 0.13216,-1.2423 0.003,-0.026 -0.003,-0.0532 0,-0.0793 0.0861,-0.85929 0.17594,-1.73328 0.23789,-2.59033 0.007,-0.0883 0.0203,-0.17599 0.0264,-0.26432 0.0429,-0.61755 0.0749,-1.23408 0.10573,-1.85023 0.004,-0.079 -0.003,-0.15888 0,-0.23788 0.0279,-0.58907 0.0622,-1.18333 0.0793,-1.77094 0.0189,-0.64647 0.0202,-1.28503 0.0264,-1.92952 0.007,-0.6887 0.008,-1.37549 0,-2.06169 -0.006,-0.53186 -0.0125,-1.05568 -0.0264,-1.58591 -0.0436,-1.65527 -0.11834,-3.30588 -0.23789,-4.94276 -0.0561,-0.76842 -0.11317,-1.5358 -0.18502,-2.29957 -0.0167,-0.17671 -0.0353,-0.35219 -0.0529,-0.52864 -0.0787,-0.79645 -0.16931,-1.58799 -0.26432,-2.37887 -0.017,-0.14135 -0.0354,-0.28174 -0.0529,-0.42291 -0.10204,-0.82377 -0.22481,-1.641 -0.34361,-2.45816 -0.0155,-0.10634 -0.0371,-0.21096 -0.0529,-0.31718 -0.0408,-0.27513 -0.0896,-0.54506 -0.13216,-0.81939 -0.0999,-0.64308 -0.18112,-1.29099 -0.29075,-1.92953 -0.15052,-0.87692 -0.30778,-1.74894 -0.47578,-2.61675 -0.007,-0.0356 -0.0195,-0.0701 -0.0264,-0.10573 -0.17558,-0.90289 -0.36176,-1.80374 -0.55507,-2.69605 -0.54244,-2.50401 -1.15976,-4.96438 -1.82379,-7.37449 -0.0459,-0.16671 -0.0857,-0.33598 -0.13216,-0.5022 z m 302.67127,74.9079 c -0.53105,1.15526 -1.08907,2.30812 -1.66521,3.46258 -0.49174,0.98533 -0.9843,1.9764 -1.50662,2.96037 -0.0891,0.16792 -0.17435,0.33432 -0.26432,0.5022 -0.0764,0.1424 -0.16094,0.28055 -0.23788,0.42291 -0.54506,1.00849 -1.11735,2.0072 -1.69164,3.01323 -0.65445,1.14644 -1.31955,2.29398 -2.00882,3.43615 -0.68666,1.13784 -1.39663,2.27724 -2.11455,3.40971 -0.70789,1.11662 -1.40591,2.24656 -2.14098,3.35684 -0.76231,1.15164 -1.56438,2.29253 -2.35244,3.43614 -0.0837,0.1214 -0.15393,0.24875 -0.23789,0.37005 -0.69329,1.0021 -1.40428,1.99186 -2.11454,2.9868 -0.79537,1.1137 -1.59181,2.22678 -2.4053,3.33042 -1.63063,2.21221 -3.28595,4.39032 -4.96919,6.5551 -4.19958,5.40096 -8.53233,10.64339 -12.76659,15.64766 -1.70165,2.0111 -3.36215,3.96368 -5.02206,5.89431 -0.34271,0.3986 -0.69061,0.82093 -1.03084,1.21586 -1.28958,1.49768 -2.58691,2.99855 -3.83262,4.44056 -2.27892,2.63664 -4.61941,5.36964 -6.68726,7.79739 -1.54399,1.81271 -3.00037,3.55077 -4.38769,5.23351 -0.19559,0.23724 -0.38941,0.47914 -0.5815,0.71366 -0.56224,0.68703 -1.16101,1.37212 -1.69164,2.03526 -0.0678,0.0847 -0.11774,0.18001 -0.18503,0.26432 -0.56845,0.71272 -1.13681,1.40435 -1.6652,2.08811 -0.13664,0.1767 -0.26265,0.35391 -0.39648,0.52864 -0.37125,0.48491 -0.73476,0.95789 -1.08371,1.42732 -0.22335,0.30033 -0.44694,0.60482 -0.66079,0.89868 -0.11408,0.15689 -0.23232,0.32076 -0.34362,0.47578 -0.34878,0.48561 -0.68372,0.98676 -1.00441,1.45375 -0.49243,0.71709 -0.9523,1.41631 -1.37446,2.08812 -0.42215,0.67181 -0.81597,1.30468 -1.163,1.92952 -3.1628,5.69466 -6.94928,12.0775 -8.51106,18.02653 -0.26011,0.9915 -0.45841,1.97115 -0.5815,2.93394 -0.0411,0.32093 -0.0818,0.63456 -0.10573,0.95155 -0.0477,0.63397 -0.0534,1.26075 -0.0264,1.87666 0.0134,0.30796 0.0458,0.59581 0.0793,0.89868 0.1657,1.52371 0.57308,2.96823 1.32159,4.33483 0.29775,0.54356 0.65359,1.07252 1.05728,1.58591 0.19756,0.27175 0.3924,0.5399 0.60793,0.79296 0.21545,0.253 0.45421,0.47881 0.68723,0.71366 0.23301,0.23485 0.46348,0.47002 0.71366,0.68723 0.0516,0.0447 0.10631,0.0881 0.15859,0.13216 0.34263,0.28848 0.71073,0.56181 1.0837,0.81938 0.29292,0.20229 0.5876,0.39759 0.89869,0.5815 0.11362,0.0673 0.22761,0.12016 0.34361,0.18503 0.19853,0.111 0.40252,0.2395 0.60794,0.34361 0.18169,0.0921 0.36807,0.17751 0.55506,0.26432 0.19172,0.0888 0.3843,0.18093 0.58151,0.26432 0.37284,0.15768 0.77099,0.31052 1.163,0.44934 0.0346,0.0122 0.071,0.0144 0.10572,0.0264 0.5187,0.18019 1.06167,0.35307 1.61235,0.50221 0.51087,0.13851 1.02219,0.25682 1.55948,0.37004 0.25972,0.0548 0.52723,0.1095 0.79295,0.15859 0.28718,0.053 0.57822,0.11196 0.87226,0.15859 0.20081,0.0318 0.40397,0.0504 0.60793,0.0793 0.0963,0.0136 0.19373,0.0398 0.29075,0.0529 0.77761,0.10428 1.58466,0.17295 2.4053,0.23789 0.68652,0.0543 1.39958,0.10319 2.11455,0.13216 0.19641,0.008 0.383,0.0203 0.5815,0.0264 0.10611,0.003 0.21049,-0.003 0.31718,0 0.82212,0.0215 1.65535,0.0337 2.51103,0.0264 0.959,-0.008 1.93572,-0.0386 2.93393,-0.0793 0.3891,-0.0157 0.79472,-0.0326 1.18944,-0.0529 0.18222,-0.009 0.37168,-0.0161 0.55507,-0.0264 0.59488,-0.0336 1.19057,-0.0895 1.79736,-0.13216 1.17569,-0.0826 2.40416,-0.17848 3.62117,-0.29075 0.41864,-0.0385 0.84556,-0.0642 1.26873,-0.10573 0.35437,-0.0349 0.72627,-0.0688 1.08371,-0.10573 0.53416,-0.055 1.09806,-0.12601 1.63877,-0.18502 1.49199,-0.16282 2.98323,-0.34191 4.51985,-0.52864 0.20207,-0.0246 0.40516,-0.0544 0.60793,-0.0793 0.80246,-0.0984 1.67187,-0.21463 2.4846,-0.31718 1.77649,-0.22489 3.57469,-0.45341 5.3921,-0.68723 1.83905,-0.236 3.628,-0.45672 5.49783,-0.68723 0.30627,-0.0379 0.61819,-0.0683 0.92511,-0.10573 3.65595,-0.44634 7.34692,-0.85754 11.04852,-1.18943 2.46796,-0.22128 4.94408,-0.39939 7.40092,-0.52864 1.22557,-0.0644 2.45591,-0.12316 3.67403,-0.15859 1.22361,-0.0356 3.88685,0.45232 5.09979,0.45021 1.21862,-0.003 -4.68685,5.04133 -3.48221,5.0771 4.18526,0.12432 13.50903,-1.03248 17.43907,-0.33671 0.56103,0.0993 1.83958,-2.2945 2.08884,-3.68397 6.92842,-38.62109 -0.29969,-78.6428 -18.84592,-116.19447 -1.51604,-3.06963 -3.10729,-6.07707 -4.75773,-9.0397 z M 353.07503,647.7286 c 0,0 -1.36156,3.69853 -3.75333,9.72693 -0.004,0.01 0.004,0.0168 0,0.0264 -0.59578,1.50148 -1.26347,3.15036 -1.98239,4.91633 -2.16661,5.32222 -4.87829,11.7519 -7.98242,18.68732 -2.58691,5.77972 -5.44615,11.90739 -8.51106,18.05297 -1.83542,3.68032 -3.74753,7.38074 -5.70928,10.99565 -0.003,0.007 0.003,0.0196 0,0.0264 -0.65161,1.20028 -1.31935,2.38612 -1.98239,3.5683 -0.003,0.007 0.003,0.0197 0,0.0264 -1.33357,2.37773 -2.69821,4.70634 -4.07051,6.97801 -1.37232,2.27171 -2.74883,4.45979 -4.1498,6.58154 -0.004,0.006 0.004,0.0203 0,0.0264 -0.69646,1.05446 -1.41288,2.08327 -2.11455,3.09252 -1.41151,2.03029 -2.83047,3.97409 -4.25553,5.78858 -0.9938,1.26537 -2.02805,2.5223 -3.0661,3.77976 -0.004,0.005 0.004,0.0211 0,0.0264 -1.03395,1.25225 -2.09881,2.48452 -3.17182,3.72689 -0.0126,0.0145 -0.0139,0.0383 -0.0264,0.0529 -1.06545,1.23301 -2.15195,2.45275 -3.25112,3.67402 -0.0168,0.0186 -0.0361,0.0343 -0.0529,0.0529 -1.75584,1.94973 -3.56602,3.87537 -5.3921,5.78858 -0.47061,0.49306 -0.92641,0.98988 -1.40089,1.48018 -0.0305,0.0315 -0.0488,0.0743 -0.0793,0.10573 -1.13676,1.17367 -2.30693,2.33256 -3.46257,3.489 -0.0352,0.0352 -0.0705,0.0705 -0.10573,0.10573 -1.15165,1.1514 -2.29677,2.30375 -3.46257,3.43614 -0.0403,0.0391 -0.0918,0.0666 -0.13216,0.10573 -1.20648,1.17078 -2.40455,2.34067 -3.62117,3.48901 21.63605,-2.74869 43.20815,-8.78277 63.96511,-18.37015 27.21049,-12.56818 50.39161,-30.01207 68.96073,-50.72274 0.0997,-0.61689 0.18504,-1.23954 0.26432,-1.85023 0.077,-0.59324 0.15583,-1.18409 0.21146,-1.77094 0.002,-0.0176 -0.002,-0.0353 0,-0.0529 0.0458,-0.48844 0.0761,-0.9701 0.10573,-1.45376 0.007,-0.11572 0.0208,-0.22816 0.0264,-0.34361 0.0316,-0.59655 0.0485,-1.18235 0.0529,-1.77093 0.0194,-2.62232 -0.0394,-5.17809 -0.26432,-7.66524 -0.14996,-1.65812 -0.37134,-3.29689 -0.71366,-4.8899 -0.17116,-0.79651 -0.37612,-1.57296 -0.60793,-2.35244 -0.22949,-0.77164 -0.49586,-1.5451 -0.79296,-2.29957 -0.003,-0.008 0.003,-0.0189 0,-0.0264 -0.14744,-0.37343 -0.31025,-0.741 -0.47577,-1.11014 -0.003,-0.008 0.003,-0.0192 0,-0.0264 -0.50776,-1.12949 -1.10131,-2.21593 -1.79737,-3.30399 -0.46404,-0.72536 -0.97485,-1.46108 -1.53305,-2.16741 -0.27495,-0.34791 -0.57294,-0.68764 -0.87225,-1.03084 -0.004,-0.005 0.004,-0.0217 0,-0.0264 -0.60842,-0.69662 -1.26724,-1.35843 -1.98239,-2.03526 -0.5557,-0.52591 -1.14626,-1.04578 -1.77093,-1.55948 -0.1785,-0.14694 -0.3443,-0.3034 -0.52864,-0.44934 -0.005,-0.004 -0.0211,0.004 -0.0264,0 -0.40973,-0.324 -0.82944,-0.65902 -1.26873,-0.97798 -0.006,-0.004 -0.0206,0.004 -0.0264,0 -1.33088,-0.96526 -2.79374,-1.9102 -4.41412,-2.82821 -0.007,-0.003 -0.0199,0.003 -0.0264,0 -1.07921,-0.6108 -2.21836,-1.23454 -3.43614,-1.82379 -0.007,-0.003 -0.0194,0.003 -0.0264,0 -0.61292,-0.29631 -1.22712,-0.5815 -1.87666,-0.87226 -0.74856,-0.33508 -1.57774,-0.65228 -2.43174,-0.95154 -0.0102,-0.003 -0.0162,-0.0228 -0.0264,-0.0264 -0.86609,-0.30263 -1.76912,-0.57785 -2.72249,-0.84582 -2.86014,-0.80392 -6.0576,-1.45312 -9.33044,-1.98239 -2.1819,-0.35285 -4.39699,-0.64721 -6.55511,-0.89869 -3.22716,-0.37602 -6.35457,-0.65034 -9.06613,-0.84581 -0.01,-7.2e-4 -0.0166,7.1e-4 -0.0264,0 -5.43519,-0.39118 -9.25144,-0.47574 -9.25144,-0.47574 z M 83.892932,685.42044 c 21.187248,27.23734 48.611178,48.35128 79.348458,62.2999 0.51474,-1.02536 1.01335,-2.04599 1.50661,-3.06609 0.49326,-1.0201 0.98355,-2.05223 1.45375,-3.0661 0.28543,-0.61543 0.56936,-1.21096 0.84582,-1.8238 0.18115,-0.40166 0.35146,-0.789 0.52864,-1.18943 0.4456,-1.00667 0.87574,-2.01473 1.29516,-3.01323 0.25993,-0.91409 0.49047,-1.81559 0.71366,-2.69605 0.0434,-0.17127 0.0901,-0.33221 0.13216,-0.50221 0.17659,-0.71332 0.34956,-1.39672 0.50221,-2.08812 0.0279,-0.12641 0.0522,-0.24436 0.0793,-0.37004 0.11187,-0.51819 0.19225,-1.02711 0.29075,-1.53305 0.0383,-0.19677 0.0958,-0.38657 0.13216,-0.5815 0.0869,-0.46601 0.16239,-0.91887 0.23789,-1.37446 0.14946,-0.89995 0.2641,-1.75672 0.37004,-2.61675 0.005,-0.0442 0.0211,-0.0882 0.0264,-0.13216 8.5e-4,-0.009 -8.4e-4,-0.0175 0,-0.0264 0.0782,-0.64875 0.13125,-1.27669 0.18503,-1.9031 0.0206,-0.23898 0.0623,-0.47789 0.0793,-0.71366 0.003,-0.0451 -0.003,-0.0872 0,-0.13216 0.017,-0.2433 0.0132,-0.47377 0.0264,-0.71366 0.026,-0.47142 0.0674,-0.94249 0.0793,-1.40089 0.003,-0.0898 -0.002,-0.175 0,-0.26431 0.0121,-0.60138 0.0121,-1.1918 0,-1.77094 -0.0105,-0.50123 -0.0246,-0.99531 -0.0529,-1.48018 -0.009,-0.16095 -0.0151,-0.31662 -0.0264,-0.47578 -0.0224,-0.31654 -0.0493,-0.61556 -0.0793,-0.92511 -0.0305,-0.3139 -0.0676,-0.61832 -0.10573,-0.92512 -0.0112,-0.0898 -0.0146,-0.17511 -0.0264,-0.26432 -0.0643,-0.48646 -0.15427,-0.95861 -0.23789,-1.42732 -0.004,-0.0257 0.004,-0.0536 0,-0.0793 -0.0918,-0.50714 -0.2032,-1.01992 -0.31718,-1.50662 -0.0169,-0.0721 -0.0355,-0.13978 -0.0529,-0.21145 -0.009,-0.0359 -0.0176,-0.0699 -0.0264,-0.10573 -0.21306,-0.86564 -0.45798,-1.68258 -0.7401,-2.48459 -0.10979,-0.3121 -0.22364,-0.6224 -0.34361,-0.92512 -0.20775,-0.52421 -0.42321,-1.03637 -0.6608,-1.53305 -0.0294,-0.0613 -0.0496,-0.12412 -0.0793,-0.18502 -0.12719,-0.26024 -0.2612,-0.51376 -0.39648,-0.76652 -0.1538,-0.28724 -0.31168,-0.56809 -0.47577,-0.84582 -0.0951,-0.16119 -0.19225,-0.31774 -0.29075,-0.47578 -0.21736,-0.3484 -0.45355,-0.69753 -0.68723,-1.03084 -0.0556,-0.0792 -0.10215,-0.15952 -0.15859,-0.23789 -0.1258,-0.1748 -0.26621,-0.33154 -0.39648,-0.5022 -0.34991,-0.45839 -0.72868,-0.89242 -1.11014,-1.3216 -0.13644,-0.15324 -0.2561,-0.32617 -0.39648,-0.47577 -0.0594,-0.0634 -0.12493,-0.12227 -0.18502,-0.18502 -0.28343,-0.29551 -0.57353,-0.59092 -0.87225,-0.87225 -0.13261,-0.1251 -0.26091,-0.2477 -0.39648,-0.37005 -0.231,-0.20823 -0.47421,-0.40755 -0.71366,-0.60793 -0.21318,-0.1784 -0.44104,-0.35635 -0.6608,-0.52864 -0.38625,-0.30257 -0.78341,-0.6145 -1.18943,-0.89868 -0.0884,-0.0619 -0.175,-0.12398 -0.26432,-0.18503 -0.10458,-0.0715 -0.21136,-0.14116 -0.31718,-0.21145 -0.39883,-0.26492 -0.79968,-0.51779 -1.21587,-0.76652 -0.0272,-0.0162 -0.0521,-0.0367 -0.0793,-0.0529 -0.49441,-0.29345 -1.01522,-0.57423 -1.53305,-0.84582 -0.41009,-0.21472 -0.84451,-0.43285 -1.26873,-0.63436 -0.14996,-0.0713 -0.29765,-0.14178 -0.44934,-0.21146 -0.33026,-0.15164 -0.66613,-0.30521 -1.00441,-0.44934 -0.25141,-0.10702 -0.5108,-0.21421 -0.76652,-0.31718 -0.25391,-0.10225 -0.50845,-0.19242 -0.76653,-0.29075 -0.34542,-0.13165 -0.70457,-0.27168 -1.05727,-0.39648 -0.17282,-0.061 -0.35411,-0.12563 -0.52864,-0.18502 -0.46425,-0.15832 -0.92486,-0.30213 -1.40089,-0.44934 -0.0687,-0.0212 -0.14254,-0.0319 -0.21145,-0.0529 -0.095,-0.0289 -0.19531,-0.0507 -0.29075,-0.0793 -1.00786,-0.30109 -2.03666,-0.59016 -3.09253,-0.84582 -0.14062,-0.0341 -0.28148,-0.0724 -0.42291,-0.10573 -0.43676,-0.10276 -0.87733,-0.19513 -1.32159,-0.29075 -0.25081,-0.0541 -0.51341,-0.10678 -0.76653,-0.15859 -0.93892,-0.19221 -1.88558,-0.36521 -2.85464,-0.52864 -0.49408,-0.0833 -1.00525,-0.16156 -1.50662,-0.23788 -0.10502,-0.016 -0.21185,-0.0372 -0.31718,-0.0529 -1.08809,-0.16178 -2.18485,-0.31754 -3.30398,-0.44934 -0.83197,-0.0982 -1.66367,-0.1811 -2.51103,-0.26432 -0.90344,-0.0887 -1.82977,-0.1646 -2.74891,-0.23789 -0.41173,-0.0327 -0.82769,-0.0759 -1.2423,-0.10572 -0.19184,-0.0139 -0.38907,-0.0132 -0.5815,-0.0264 -0.91904,-0.0634 -1.84391,-0.10767 -2.77535,-0.15859 -0.23834,-0.013 -0.47458,-0.0406 -0.71366,-0.0529 -0.75947,-0.039 -1.53329,-0.0738 -2.29957,-0.10572 -0.0872,-0.003 -0.17699,0.003 -0.26432,0 -3.1998,-0.12976 -6.45403,-0.21548 -9.72692,-0.26432 -1.51393,-0.0226 -3.02765,-0.0642 -4.54628,-0.0793 -0.16811,-0.002 -0.33409,0.002 -0.50221,0 -5.51527,-0.053 -11.03139,-0.0861 -16.387754,-0.23788 -1.201394,-0.034 -2.385059,-0.0577 -3.568301,-0.10573 -0.178257,-0.008 -0.350838,-0.0189 -0.528638,-0.0264 -1.355197,-0.0579 -2.692396,-0.12963 -4.017643,-0.21146 z"
       id="path7157"
       inkscape:connector-curvature="0"
       sodipodi:nodetypes="sccccccsccccscccccssssscccccscccccccccccsssccccccsscccscsccscccccsccsccccccssssssssssssscccscccccccsccccccccsccccccccsccccccsscccccccsccccccccccscccccscccsssccssccccccccccccccsccccscccsccccccccsssccccscccccccccccccccsccscccssscssccssscccsscsccccccsssscsssscccsccccccccscccccssccccccssccccccssssccsccccccccccsccssccccccccccccccscssccssccccccccssccsscsscssccccsscsscsccscccccccscccccsscccccccccsccsccccccccccscccscscsssccccssssccssccccccccsssccccccccsccscccccccccccccssccccccscccscccccssssssscscaccsssccccsccssccccccscccccccscsccccssssccccssccscccccccccsccssscccccsscccscccccccccccsccccccsccccccccscccccscscccccscccccccccccccccccccccscccscccccccscccsccccccc" />
    <path
       style="fill:#0038a8;fill-opacity:1;stroke:none"
       d="m 100.04265,338.72068 c 0,0 60.38012,81.16038 6.93251,141.81244 -38.288888,43.45003 -86.893238,92.27078 -87.354455,150.18218 -0.158108,19.85239 10.228755,45.85522 29.121864,51.95382 39.024438,12.59689 126.177151,-15.82276 106.444141,53.57198 -18.77877,44.70537 -64.703803,98.99375 -64.703803,98.99375 l 5.997174,5.12917 c 0,0 120.744879,-87.71191 142.275249,-154.2696 5.40333,-16.70353 5.45972,-39.22733 -6.26581,-52.29314 -35.17294,-34.20613 -84.34552,-1.93451 -117.07096,-8.46779 -24.035456,0.10959 -18.214103,-16.02917 -11.04745,-31.09065 16.89044,-36.275 49.88782,-51.02034 66.44247,-99.97933 10.02472,-29.64725 11.57367,-57.16057 -13.79957,-92.86908 -16.35314,-23.01426 -56.97136,-62.67375 -56.97136,-62.67375 z"
       id="path4425"
       inkscape:connector-curvature="0"
       sodipodi:nodetypes="csascccacccssc" />
    <path
       style="fill:#ce1126;fill-opacity:1;stroke:none"
       d="m 168.44626,357.90654 c 0,0 77.38556,106.45094 96.06566,228.52464 22.03343,143.98756 -64.42263,218.81777 -64.42263,218.81777 l 5.44481,7.49647 c 0,0 55.70237,-36.96005 87.50386,-77.45204 22.80104,-29.03196 44.51305,-88.49629 44.51305,-88.49629 0,0 27.27976,0.59676 39.40901,6.02629 20.78539,9.30437 22.54855,21.4644 22.44514,35.45009 -0.33137,44.81824 -73.59911,112.52654 -73.59911,112.52654 l 6.22124,4.84349 c 0,0 84.44073,-58.37878 115.66392,-98.15352 17.34671,-22.09771 42.63197,-47.89627 37.71319,-75.3702 -10.37236,-83.73497 -115.32927,-20.64564 -134.52849,-47.05415 -6.45893,-8.21412 1.14775,-20.48444 6.77052,-30.60828 11.10512,-19.99485 61.91465,-64.46709 72.9398,-105.8829 6.29414,-23.64382 2.44764,-50.2153 -6.07609,-73.14983 -10.96794,-29.5111 -55.55284,-76.38516 -55.55284,-76.38516 0,0 22.98224,42.7687 21.72563,76.72671 -0.72587,19.61563 -5.38849,40.38789 -17.55574,56.20937 -18.86081,24.52532 -63.03696,68.12734 -63.03696,68.12734 0,0 -35.00849,-51.31319 -62.02349,-76.77971 -32.48415,-30.62219 -79.62048,-65.41663 -79.62048,-65.41663 z"
       id="path7137"
       inkscape:connector-curvature="0"
       sodipodi:nodetypes="csccscsaccaccsaacsscsc" />
    <path
       sodipodi:type="arc"
       style="opacity:0.98999999;color:#000000;fill:#ce1126;fill-opacity:1;fill-rule:nonzero;stroke:none;stroke-width:0;marker:none;visibility:visible;display:inline;overflow:visible;enable-background:accumulate"
       id="path4403"
       sodipodi:cx="560.8194"
       sodipodi:cy="126.44744"
       sodipodi:rx="40.194069"
       sodipodi:ry="41.919136"
       d="m 524.54989,144.5139 c -9.56722,-20.8908 -1.08458,-45.914769 18.94652,-55.8926 20.0311,-9.977831 44.02528,-1.131121 53.5925,19.75968 9.56722,20.8908 1.08457,45.91477 -18.94653,55.8926 -20.02244,9.97352 -44.00659,1.13911 -53.5819,-19.73657"
       transform="matrix(0.89697665,0,0,0.86006432,-188.82586,310.06468)"
       sodipodi:start="2.6960101"
       sodipodi:end="8.9785845"
       sodipodi:open="true" />
  </g>
</svg>
